<svg width="21" height="21" viewBox="0 0 21 21" fill="none" xmlns="http://www.w3.org/2000/svg">
<g id="Icon" clip-path="url(#clip0_4_85)">
<path id="Vector" d="M20.64 10.5233C20.64 10.0345 20.4733 9.62335 20.14 9.29001C19.8067 8.95668 19.3956 8.79001 18.9067 8.79001H3.77333V3.39001C3.77333 2.94557 3.92889 2.56779 4.24 2.25668C4.46222 2.03446 4.71778 1.90112 5.00667 1.85668C5.29556 1.81223 5.59556 1.83446 5.90667 1.92335C5.50667 2.54557 5.35111 3.23446 5.44 3.99001C5.52889 4.74557 5.84 5.39001 6.37333 5.92335L6.50667 6.12335C6.64 6.21223 6.78444 6.25668 6.94 6.25668C7.09556 6.25668 7.21778 6.21223 7.30667 6.12335L11.1067 2.32335C11.24 2.19001 11.3067 2.04557 11.3067 1.89001C11.3067 1.73446 11.24 1.59001 11.1067 1.45668L10.9733 1.32335C10.3956 0.745567 9.69556 0.434456 8.87333 0.390011C8.05111 0.345568 7.32889 0.567789 6.70667 1.05668C6.17333 0.745567 5.59556 0.623344 4.97333 0.690012C4.35111 0.756678 3.81778 1.01223 3.37333 1.45668C2.84 1.99001 2.57333 2.63446 2.57333 3.39001V8.79001H2.37333C1.88444 8.79001 1.47333 8.95668 1.14 9.29001C0.806666 9.62335 0.639999 10.0345 0.639999 10.5233C0.639999 10.9233 0.751111 11.2678 0.973333 11.5567C1.19555 11.8456 1.46222 12.0567 1.77333 12.19V13.4567C1.77333 14.5233 2.06222 15.5011 2.64 16.39C3.21778 17.2789 3.95111 17.9678 4.84 18.4567L4.30667 19.5233C4.21778 19.7011 4.20667 19.8567 4.27333 19.99C4.34 20.1233 4.44 20.2345 4.57333 20.3233C4.70667 20.4122 4.85111 20.4233 5.00667 20.3567C5.16222 20.29 5.28444 20.19 5.37333 20.0567L5.97333 18.8567C6.41778 18.9456 6.88444 18.99 7.37333 18.99H13.9067C14.3956 18.99 14.8622 18.9456 15.3067 18.8567L15.9067 20.0567C15.9956 20.19 16.1178 20.29 16.2733 20.3567C16.4289 20.4233 16.5733 20.4122 16.7067 20.3233C16.84 20.2345 16.94 20.1233 17.0067 19.99C17.0733 19.8567 17.0622 19.7011 16.9733 19.5233L16.44 18.4567C17.3289 17.9678 18.0622 17.2789 18.64 16.39C19.2178 15.5011 19.5067 14.5233 19.5067 13.4567V12.19C19.8178 12.0567 20.0844 11.8456 20.3067 11.5567C20.5289 11.2678 20.64 10.9233 20.64 10.5233ZM9.84 1.92335L6.97333 4.85668C6.66222 4.41223 6.52889 3.94557 6.57333 3.45668C6.61778 2.96779 6.81778 2.54557 7.17333 2.19001C7.52889 1.83446 7.96222 1.63446 8.47333 1.59001C8.98444 1.54557 9.44 1.65668 9.84 1.92335ZM2.37333 9.99001H18.9067C19.04 9.99001 19.1622 10.0456 19.2733 10.1567C19.3844 10.2678 19.44 10.4011 19.44 10.5567C19.44 10.7122 19.3844 10.8456 19.2733 10.9567C19.1622 11.0678 19.04 11.1233 18.9067 11.1233H2.37333C2.24 11.1233 2.11778 11.0678 2.00667 10.9567C1.89556 10.8456 1.84 10.7122 1.84 10.5567C1.84 10.4011 1.89556 10.2678 2.00667 10.1567C2.11778 10.0456 2.24 9.99001 2.37333 9.99001ZM18.3067 13.4567C18.3067 14.2567 18.1067 14.99 17.7067 15.6567C17.3067 16.3233 16.7733 16.8567 16.1067 17.2567C15.44 17.6567 14.7067 17.8567 13.9067 17.8567H7.37333C6.57333 17.8567 5.84 17.6567 5.17333 17.2567C4.50667 16.8567 3.97333 16.3233 3.57333 15.6567C3.17333 14.99 2.97333 14.2567 2.97333 13.4567V12.3233H18.3067V13.4567ZM9.10667 6.32335C9.10667 6.50112 9.16222 6.64557 9.27333 6.75668C9.38444 6.86779 9.51778 6.92335 9.67333 6.92335C9.82889 6.92335 9.96222 6.86779 10.0733 6.75668C10.1844 6.64557 10.24 6.50112 10.24 6.32335C10.24 6.14557 10.1844 6.00112 10.0733 5.89001C9.96222 5.7789 9.82889 5.72334 9.67333 5.72334C9.51778 5.72334 9.38444 5.7789 9.27333 5.89001C9.16222 6.00112 9.10667 6.14557 9.10667 6.32335ZM10.7733 4.65668C10.7733 4.83446 10.8289 4.9789 10.94 5.09001C11.0511 5.20112 11.1844 5.25668 11.34 5.25668C11.4956 5.25668 11.6289 5.20112 11.74 5.09001C11.8511 4.9789 11.9067 4.83446 11.9067 4.65668C11.9067 4.4789 11.8511 4.33446 11.74 4.22334C11.6289 4.11223 11.4956 4.05668 11.34 4.05668C11.1844 4.05668 11.0511 4.11223 10.94 4.22334C10.8289 4.33446 10.7733 4.4789 10.7733 4.65668ZM11.1733 6.72334C11.1733 6.85668 11.2289 6.99001 11.34 7.12335C11.4511 7.25668 11.5844 7.32335 11.74 7.32335C11.8956 7.32335 12.0289 7.25668 12.14 7.12335C12.2511 6.99001 12.3067 6.84557 12.3067 6.69001C12.3067 6.53446 12.2511 6.40112 12.14 6.29001C12.0289 6.1789 11.8956 6.12335 11.74 6.12335C11.5844 6.12335 11.4511 6.1789 11.34 6.29001C11.2289 6.40112 11.1733 6.54557 11.1733 6.72334Z" fill="#1A1A1A"/>
</g>
<defs>
<clipPath id="clip0_4_85">
<rect width="20" height="20" fill="white" transform="matrix(1 0 0 -1 0.639999 20.39)"/>
</clipPath>
</defs>
</svg>
