<svg width="20" height="21" viewBox="0 0 20 21" fill="none" xmlns="http://www.w3.org/2000/svg">
<g id="Icon" clip-path="url(#clip0_4_81)">
<path id="Vector" d="M17.5333 6.65671H8.73333C8.28889 6.65671 7.86667 6.79005 7.46667 7.05671C7.37778 6.39005 7.1 5.8456 6.63333 5.42338C6.16667 5.00116 5.62222 4.79005 5 4.79005C4.51111 4.79005 4.06667 4.90116 3.66667 5.12338V4.12338C3.66667 3.9456 3.61111 3.80116 3.5 3.69005C3.38889 3.57894 3.24444 3.52338 3.06667 3.52338H0.6C0.422222 3.52338 0.277778 3.57894 0.166667 3.69005C0.0555556 3.80116 0 3.9456 0 4.12338V16.6567C0 16.8345 0.0555556 16.9789 0.166667 17.09C0.277778 17.2012 0.422222 17.2567 0.6 17.2567H3.06667C3.24444 17.2567 3.38889 17.2012 3.5 17.09C3.61111 16.9789 3.66667 16.8345 3.66667 16.6567V14.7234H16.3333V16.6567C16.3333 16.8345 16.3889 16.9789 16.5 17.09C16.6111 17.2012 16.7556 17.2567 16.9333 17.2567H19.4C19.5778 17.2567 19.7222 17.2012 19.8333 17.09C19.9444 16.9789 20 16.8345 20 16.6567V9.12338C20 8.45671 19.7556 7.87894 19.2667 7.39005C18.7778 6.90116 18.2 6.65671 17.5333 6.65671ZM5 5.92338C5.35556 5.92338 5.65556 6.05671 5.9 6.32338C6.14444 6.59005 6.26667 6.90116 6.26667 7.25671C6.26667 7.61227 6.14444 7.91227 5.9 8.15671C5.65556 8.40116 5.35556 8.52338 5 8.52338C4.64444 8.52338 4.33333 8.40116 4.06667 8.15671C3.8 7.91227 3.66667 7.61227 3.66667 7.25671C3.66667 6.90116 3.8 6.59005 4.06667 6.32338C4.33333 6.05671 4.64444 5.92338 5 5.92338ZM3.66667 9.32338C4.06667 9.59005 4.5 9.72338 4.96667 9.72338C5.43333 9.72338 5.86667 9.59005 6.26667 9.32338V11.0567H3.66667V9.32338ZM18.8 16.0567H17.4667V14.1234C17.4667 13.99 17.4111 13.8678 17.3 13.7567C17.1889 13.6456 17.0667 13.59 16.9333 13.59H3.06667C2.93333 13.59 2.81111 13.6456 2.7 13.7567C2.58889 13.8678 2.53333 13.99 2.53333 14.1234V16.0567H1.2V4.72338H2.53333V11.6567C2.53333 11.79 2.58889 11.9234 2.7 12.0567C2.81111 12.19 2.93333 12.2567 3.06667 12.2567H18.8V16.0567ZM18.8 11.0567H7.46667V9.12338C7.46667 8.76782 7.58889 8.46782 7.83333 8.22338C8.07778 7.97894 8.37778 7.85671 8.73333 7.85671H17.5333C17.8889 7.85671 18.1889 7.97894 18.4333 8.22338C18.6778 8.46782 18.8 8.76782 18.8 9.12338V11.0567Z" fill="#1A1A1A"/>
</g>
<defs>
<clipPath id="clip0_4_81">
<rect width="20" height="20" fill="white" transform="matrix(1 0 0 -1 0 20.39)"/>
</clipPath>
</defs>
</svg>
