<svg width="20" height="21" viewBox="0 0 20 21" fill="none" xmlns="http://www.w3.org/2000/svg">
<g id="Icon" clip-path="url(#clip0_4_77)">
<path id="Vector" d="M16.1333 2.80335C15.2889 2.00335 14.3444 1.38113 13.3 0.936686C12.2556 0.492241 11.1556 0.270018 10 0.270018C8.84444 0.270018 7.73333 0.492241 6.66667 0.936686C5.6 1.38113 4.66667 2.00335 3.86667 2.80335C3.06667 3.60335 2.44444 4.53668 2 5.60335C1.55555 6.67002 1.33333 7.78113 1.33333 8.93669C1.33333 10.0922 1.55555 11.1922 2 12.2367C2.44444 13.2811 3.06667 14.2256 3.86667 15.07L8.46667 19.67C8.86667 20.07 9.36667 20.27 9.96667 20.27C10.5667 20.27 11.0889 20.07 11.5333 19.67L16.1333 15.07C16.9333 14.2256 17.5556 13.2811 18 12.2367C18.4444 11.1922 18.6667 10.0922 18.6667 8.93669C18.6667 7.78113 18.4444 6.67002 18 5.60335C17.5556 4.53668 16.9333 3.60335 16.1333 2.80335ZM15.2667 14.2034L10.6667 18.8034C10.4889 18.9811 10.2667 19.07 10 19.07C9.73333 19.07 9.48889 18.9811 9.26667 18.8034L4.66667 14.2034C3.95555 13.4922 3.42222 12.6811 3.06667 11.77C2.71111 10.8589 2.53333 9.90335 2.53333 8.90335C2.53333 7.90335 2.71111 6.9478 3.06667 6.03668C3.42222 5.12557 3.95555 4.32557 4.66667 3.63668C5.37778 2.9478 6.18889 2.41446 7.1 2.03669C8.01111 1.65891 8.96667 1.47002 9.96667 1.47002C10.9667 1.47002 11.9222 1.65891 12.8333 2.03669C13.7444 2.41446 14.5556 2.93669 15.2667 3.60335C16.2444 4.58113 16.9 5.71446 17.2333 7.00335C17.5667 8.29224 17.5667 9.58113 17.2333 10.87C16.9 12.1589 16.2444 13.27 15.2667 14.2034ZM10 5.80335C9.15555 5.80335 8.42222 6.11446 7.8 6.73669C7.17778 7.35891 6.86667 8.09224 6.86667 8.93669C6.86667 9.78113 7.17778 10.5034 7.8 11.1034C8.42222 11.7034 9.15555 12.0034 10 12.0034C10.8444 12.0034 11.5667 11.7034 12.1667 11.1034C12.7667 10.5034 13.0667 9.78113 13.0667 8.93669C13.0667 8.09224 12.7667 7.35891 12.1667 6.73669C11.5667 6.11446 10.8444 5.80335 10 5.80335ZM10 10.87C9.46667 10.87 9.01111 10.6811 8.63333 10.3034C8.25555 9.92557 8.06667 9.47002 8.06667 8.93669C8.06667 8.40335 8.25555 7.9478 8.63333 7.57002C9.01111 7.19224 9.46667 7.00335 10 7.00335C10.5333 7.00335 10.9889 7.19224 11.3667 7.57002C11.7444 7.9478 11.9333 8.40335 11.9333 8.93669C11.9333 9.47002 11.7444 9.92557 11.3667 10.3034C10.9889 10.6811 10.5333 10.87 10 10.87Z" fill="#1A1A1A"/>
</g>
<defs>
<clipPath id="clip0_4_77">
<rect width="20" height="20" fill="white" transform="matrix(1 0 0 -1 0 20.27)"/>
</clipPath>
</defs>
</svg>
