<svg width="21" height="21" viewBox="0 0 21 21" fill="none" xmlns="http://www.w3.org/2000/svg">
<g id="Icon" clip-path="url(#clip0_4_88)">
<path id="Vector" d="M16.3867 19.19H13.9867C13.8533 19.19 13.72 19.2567 13.5867 19.39C13.4533 19.5233 13.3867 19.6678 13.3867 19.8233C13.3867 19.9789 13.4533 20.1122 13.5867 20.2233C13.72 20.3345 13.8533 20.39 13.9867 20.39H16.3867C16.5644 20.39 16.7089 20.3345 16.82 20.2233C16.9311 20.1122 16.9867 19.9789 16.9867 19.8233C16.9867 19.6678 16.9311 19.5233 16.82 19.39C16.7089 19.2567 16.5644 19.19 16.3867 19.19ZM11.6533 19.19H9.32C9.14223 19.19 8.99778 19.2567 8.88667 19.39C8.77556 19.5233 8.72001 19.6678 8.72001 19.8233C8.72001 19.9789 8.77556 20.1122 8.88667 20.2233C8.99778 20.3345 9.14223 20.39 9.32 20.39H11.6533C11.8311 20.39 11.9756 20.3345 12.0867 20.2233C12.1978 20.1122 12.2533 19.9789 12.2533 19.8233C12.2533 19.6678 12.1978 19.5233 12.0867 19.39C11.9756 19.2567 11.8311 19.19 11.6533 19.19ZM19.92 8.59001C19.7867 8.59001 19.6533 8.64557 19.52 8.75668C19.3867 8.86779 19.32 9.01224 19.32 9.19001V11.5233C19.32 11.7011 19.3867 11.8456 19.52 11.9567C19.6533 12.0678 19.7978 12.1233 19.9533 12.1233C20.1089 12.1233 20.2422 12.0678 20.3533 11.9567C20.4644 11.8456 20.52 11.7011 20.52 11.5233V9.19001C20.52 9.01224 20.4644 8.86779 20.3533 8.75668C20.2422 8.64557 20.0978 8.59001 19.92 8.59001ZM19.92 13.2567C19.7867 13.2567 19.6533 13.3233 19.52 13.4567C19.3867 13.59 19.32 13.7233 19.32 13.8567V16.19C19.32 16.3678 19.3867 16.5122 19.52 16.6233C19.6533 16.7345 19.7978 16.79 19.9533 16.79C20.1089 16.79 20.2422 16.7345 20.3533 16.6233C20.4644 16.5122 20.52 16.3678 20.52 16.19V13.8567C20.52 13.7233 20.4644 13.59 20.3533 13.4567C20.2422 13.3233 20.0978 13.2567 19.92 13.2567ZM6.98667 19.19H6.38667V18.6567C6.38667 18.4789 6.33112 18.3345 6.22 18.2233C6.10889 18.1122 5.96445 18.0567 5.78667 18.0567C5.60889 18.0567 5.46445 18.1122 5.35334 18.2233C5.24223 18.3345 5.18667 18.4789 5.18667 18.6567V19.79C5.18667 19.9678 5.24223 20.1122 5.35334 20.2233C5.46445 20.3345 5.60889 20.39 5.78667 20.39H6.98667C7.12 20.39 7.24223 20.3345 7.35334 20.2233C7.46445 20.1122 7.52 19.9789 7.52 19.8233C7.52 19.6678 7.46445 19.5233 7.35334 19.39C7.24223 19.2567 7.12 19.19 6.98667 19.19ZM19.92 5.05668H18.7867C18.6089 5.05668 18.4644 5.11224 18.3533 5.22335C18.2422 5.33446 18.1867 5.4789 18.1867 5.65668C18.1867 5.83446 18.2422 5.9789 18.3533 6.09001C18.4644 6.20113 18.6089 6.25668 18.7867 6.25668H19.32V6.85668C19.32 6.99001 19.3867 7.11224 19.52 7.22335C19.6533 7.33446 19.7978 7.39001 19.9533 7.39001C20.1089 7.39001 20.2422 7.33446 20.3533 7.22335C20.4644 7.11224 20.52 6.99001 20.52 6.85668V5.65668C20.52 5.4789 20.4644 5.33446 20.3533 5.22335C20.2422 5.11224 20.0978 5.05668 19.92 5.05668ZM19.92 18.0567C19.7867 18.0567 19.6533 18.1122 19.52 18.2233C19.3867 18.3345 19.32 18.4789 19.32 18.6567V19.19H18.7867C18.6089 19.19 18.4644 19.2567 18.3533 19.39C18.2422 19.5233 18.1867 19.6678 18.1867 19.8233C18.1867 19.9789 18.2422 20.1122 18.3533 20.2233C18.4644 20.3345 18.6089 20.39 18.7867 20.39H19.92C20.0978 20.39 20.2422 20.3345 20.3533 20.2233C20.4644 20.1122 20.52 19.9678 20.52 19.79V18.6567C20.52 18.4789 20.4644 18.3345 20.3533 18.2233C20.2422 18.1122 20.0978 18.0567 19.92 18.0567ZM16.3867 5.05668H15.7867V0.990013C15.7867 0.812237 15.72 0.667791 15.5867 0.556681C15.4533 0.44557 15.32 0.390013 15.1867 0.390013H1.12C0.942226 0.390013 0.797782 0.44557 0.686671 0.556681C0.57556 0.667791 0.520004 0.812237 0.520004 0.990013V15.0567C0.520004 15.19 0.57556 15.3233 0.686671 15.4567C0.797782 15.59 0.942226 15.6567 1.12 15.6567H5.18667V16.19C5.18667 16.3678 5.24223 16.5122 5.35334 16.6233C5.46445 16.7345 5.60889 16.79 5.78667 16.79C5.96445 16.79 6.10889 16.7345 6.22 16.6233C6.33112 16.5122 6.38667 16.3678 6.38667 16.19V6.25668H16.3867C16.5644 6.25668 16.7089 6.20113 16.82 6.09001C16.9311 5.9789 16.9867 5.83446 16.9867 5.65668C16.9867 5.4789 16.9311 5.33446 16.82 5.22335C16.7089 5.11224 16.5644 5.05668 16.3867 5.05668ZM14.5867 5.05668H5.78667C5.60889 5.05668 5.46445 5.11224 5.35334 5.22335C5.24223 5.33446 5.18667 5.4789 5.18667 5.65668V14.4567H1.72V1.59001H14.5867V5.05668Z" fill="#1A1A1A"/>
</g>
<defs>
<clipPath id="clip0_4_88">
<rect width="20" height="20" fill="white" transform="matrix(1 0 0 -1 0.520004 20.39)"/>
</clipPath>
</defs>
</svg>
